<mxfile host="65bd71144e">
    <diagram id="amqrW1gJ4K7w5JCBkm9t" name="Page-1">
        <mxGraphModel dx="1981" dy="755" grid="1" gridSize="10" guides="1" tooltips="1" connect="1" arrows="1" fold="1" page="1" pageScale="1" pageWidth="827" pageHeight="1169" math="0" shadow="0">
            <root>
                <mxCell id="0"/>
                <mxCell id="1" parent="0"/>
                <mxCell id="11" value="" style="rounded=0;whiteSpace=wrap;html=1;" vertex="1" parent="1">
                    <mxGeometry x="-80" y="160" width="1080" height="640" as="geometry"/>
                </mxCell>
                <mxCell id="QJUcf3hQXVjyApLe9Yys-25" style="edgeStyle=orthogonalEdgeStyle;rounded=0;orthogonalLoop=1;jettySize=auto;html=1;exitX=1;exitY=0.5;exitDx=0;exitDy=0;entryX=0;entryY=0.25;entryDx=0;entryDy=0;" parent="1" source="QJUcf3hQXVjyApLe9Yys-1" target="QJUcf3hQXVjyApLe9Yys-2" edge="1">
                    <mxGeometry relative="1" as="geometry">
                        <Array as="points">
                            <mxPoint x="200" y="400"/>
                            <mxPoint x="280" y="400"/>
                            <mxPoint x="280" y="490"/>
                        </Array>
                    </mxGeometry>
                </mxCell>
                <mxCell id="QJUcf3hQXVjyApLe9Yys-32" value="Edit Entry Button&lt;br&gt;[has selected entry]" style="edgeLabel;html=1;align=center;verticalAlign=middle;resizable=0;points=[];" parent="QJUcf3hQXVjyApLe9Yys-25" vertex="1" connectable="0">
                    <mxGeometry x="-0.2298" y="-3" relative="1" as="geometry">
                        <mxPoint x="3" y="30" as="offset"/>
                    </mxGeometry>
                </mxCell>
                <mxCell id="QJUcf3hQXVjyApLe9Yys-62" style="edgeStyle=orthogonalEdgeStyle;rounded=0;orthogonalLoop=1;jettySize=auto;html=1;exitX=0.25;exitY=0;exitDx=0;exitDy=0;entryX=0;entryY=0.5;entryDx=0;entryDy=0;fontColor=#CC0000;" parent="1" source="QJUcf3hQXVjyApLe9Yys-1" target="QJUcf3hQXVjyApLe9Yys-60" edge="1">
                    <mxGeometry relative="1" as="geometry">
                        <Array as="points">
                            <mxPoint x="80" y="320"/>
                            <mxPoint x="20" y="320"/>
                            <mxPoint x="20" y="240"/>
                        </Array>
                    </mxGeometry>
                </mxCell>
                <mxCell id="QJUcf3hQXVjyApLe9Yys-63" value="&lt;span style=&quot;color: rgb(0, 0, 0);&quot;&gt;Edit Entry Button&lt;/span&gt;&lt;br style=&quot;color: rgb(0, 0, 0);&quot;&gt;&lt;span style=&quot;color: rgb(0, 0, 0);&quot;&gt;[has no selected entry]&lt;/span&gt;" style="edgeLabel;html=1;align=center;verticalAlign=middle;resizable=0;points=[];fontColor=#CC0000;" parent="QJUcf3hQXVjyApLe9Yys-62" vertex="1" connectable="0">
                    <mxGeometry x="0.1683" y="1" relative="1" as="geometry">
                        <mxPoint x="1" y="1" as="offset"/>
                    </mxGeometry>
                </mxCell>
                <mxCell id="QJUcf3hQXVjyApLe9Yys-1" value="JPass Dashboard&lt;br&gt;(idle state)" style="html=1;fillColor=#dae8fc;strokeColor=#6c8ebf;" parent="1" vertex="1">
                    <mxGeometry x="40" y="350" width="160" height="120" as="geometry"/>
                </mxCell>
                <mxCell id="QJUcf3hQXVjyApLe9Yys-26" style="edgeStyle=orthogonalEdgeStyle;rounded=0;orthogonalLoop=1;jettySize=auto;html=1;exitX=0;exitY=0.75;exitDx=0;exitDy=0;entryX=1;entryY=0.5;entryDx=0;entryDy=0;" parent="1" source="QJUcf3hQXVjyApLe9Yys-2" target="QJUcf3hQXVjyApLe9Yys-7" edge="1">
                    <mxGeometry relative="1" as="geometry"/>
                </mxCell>
                <mxCell id="QJUcf3hQXVjyApLe9Yys-33" value="Ok button&lt;br&gt;[valid form]" style="edgeLabel;html=1;align=center;verticalAlign=middle;resizable=0;points=[];" parent="QJUcf3hQXVjyApLe9Yys-26" vertex="1" connectable="0">
                    <mxGeometry x="0.4771" y="2" relative="1" as="geometry">
                        <mxPoint x="33" y="18" as="offset"/>
                    </mxGeometry>
                </mxCell>
                <mxCell id="QJUcf3hQXVjyApLe9Yys-27" style="edgeStyle=orthogonalEdgeStyle;rounded=0;orthogonalLoop=1;jettySize=auto;html=1;exitX=0.25;exitY=0;exitDx=0;exitDy=0;entryX=0.5;entryY=1;entryDx=0;entryDy=0;" parent="1" source="QJUcf3hQXVjyApLe9Yys-2" target="QJUcf3hQXVjyApLe9Yys-14" edge="1">
                    <mxGeometry relative="1" as="geometry"/>
                </mxCell>
                <mxCell id="QJUcf3hQXVjyApLe9Yys-28" style="edgeStyle=orthogonalEdgeStyle;rounded=0;orthogonalLoop=1;jettySize=auto;html=1;entryX=0;entryY=0.5;entryDx=0;entryDy=0;" parent="1" source="QJUcf3hQXVjyApLe9Yys-2" edge="1" target="QJUcf3hQXVjyApLe9Yys-3">
                    <mxGeometry relative="1" as="geometry">
                        <mxPoint x="690" y="480" as="targetPoint"/>
                    </mxGeometry>
                </mxCell>
                <mxCell id="QJUcf3hQXVjyApLe9Yys-37" value="Generate Button" style="edgeLabel;html=1;align=center;verticalAlign=middle;resizable=0;points=[];" parent="QJUcf3hQXVjyApLe9Yys-28" vertex="1" connectable="0">
                    <mxGeometry x="-0.2233" y="-1" relative="1" as="geometry">
                        <mxPoint x="1" y="9" as="offset"/>
                    </mxGeometry>
                </mxCell>
                <mxCell id="QJUcf3hQXVjyApLe9Yys-34" style="edgeStyle=orthogonalEdgeStyle;rounded=0;orthogonalLoop=1;jettySize=auto;html=1;exitX=0;exitY=0.5;exitDx=0;exitDy=0;entryX=0.75;entryY=1;entryDx=0;entryDy=0;" parent="1" source="QJUcf3hQXVjyApLe9Yys-2" target="QJUcf3hQXVjyApLe9Yys-1" edge="1">
                    <mxGeometry relative="1" as="geometry">
                        <Array as="points">
                            <mxPoint x="250" y="540"/>
                            <mxPoint x="250" y="500"/>
                            <mxPoint x="160" y="500"/>
                        </Array>
                    </mxGeometry>
                </mxCell>
                <mxCell id="QJUcf3hQXVjyApLe9Yys-35" value="Cancel button" style="edgeLabel;html=1;align=center;verticalAlign=middle;resizable=0;points=[];" parent="QJUcf3hQXVjyApLe9Yys-34" vertex="1" connectable="0">
                    <mxGeometry x="-0.0171" relative="1" as="geometry">
                        <mxPoint x="40" y="13" as="offset"/>
                    </mxGeometry>
                </mxCell>
                <mxCell id="QJUcf3hQXVjyApLe9Yys-2" value="Edit Entry" style="html=1;fillColor=#dae8fc;strokeColor=#6c8ebf;" parent="1" vertex="1">
                    <mxGeometry x="360" y="440" width="240" height="200" as="geometry"/>
                </mxCell>
                <mxCell id="QJUcf3hQXVjyApLe9Yys-29" style="edgeStyle=orthogonalEdgeStyle;rounded=0;orthogonalLoop=1;jettySize=auto;html=1;exitX=0.25;exitY=0;exitDx=0;exitDy=0;entryX=0.25;entryY=1;entryDx=0;entryDy=0;" parent="1" source="QJUcf3hQXVjyApLe9Yys-3" target="QJUcf3hQXVjyApLe9Yys-13" edge="1">
                    <mxGeometry relative="1" as="geometry"/>
                </mxCell>
                <mxCell id="QJUcf3hQXVjyApLe9Yys-42" value="Accept Button&lt;br&gt;[empty generated password]" style="edgeLabel;html=1;align=center;verticalAlign=middle;resizable=0;points=[];" parent="QJUcf3hQXVjyApLe9Yys-29" vertex="1" connectable="0">
                    <mxGeometry x="0.2293" relative="1" as="geometry">
                        <mxPoint x="-20" y="-16" as="offset"/>
                    </mxGeometry>
                </mxCell>
                <mxCell id="QJUcf3hQXVjyApLe9Yys-38" style="edgeStyle=orthogonalEdgeStyle;rounded=0;orthogonalLoop=1;jettySize=auto;html=1;exitX=0.25;exitY=1;exitDx=0;exitDy=0;entryX=1;entryY=0.75;entryDx=0;entryDy=0;" parent="1" source="QJUcf3hQXVjyApLe9Yys-3" target="QJUcf3hQXVjyApLe9Yys-2" edge="1">
                    <mxGeometry relative="1" as="geometry">
                        <Array as="points">
                            <mxPoint x="710" y="590"/>
                        </Array>
                    </mxGeometry>
                </mxCell>
                <mxCell id="QJUcf3hQXVjyApLe9Yys-39" value="Cancel Button" style="edgeLabel;html=1;align=center;verticalAlign=middle;resizable=0;points=[];" parent="QJUcf3hQXVjyApLe9Yys-38" vertex="1" connectable="0">
                    <mxGeometry x="0.2578" y="3" relative="1" as="geometry">
                        <mxPoint x="11" y="7" as="offset"/>
                    </mxGeometry>
                </mxCell>
                <mxCell id="QJUcf3hQXVjyApLe9Yys-3" value="Generate Password" style="html=1;fillColor=#dae8fc;strokeColor=#6c8ebf;" parent="1" vertex="1">
                    <mxGeometry x="690" y="480" width="120" height="80" as="geometry"/>
                </mxCell>
                <mxCell id="QJUcf3hQXVjyApLe9Yys-24" style="edgeStyle=orthogonalEdgeStyle;rounded=0;orthogonalLoop=1;jettySize=auto;html=1;exitX=0.5;exitY=0;exitDx=0;exitDy=0;entryX=0.25;entryY=1;entryDx=0;entryDy=0;" parent="1" source="QJUcf3hQXVjyApLe9Yys-7" target="QJUcf3hQXVjyApLe9Yys-1" edge="1">
                    <mxGeometry relative="1" as="geometry"/>
                </mxCell>
                <mxCell id="QJUcf3hQXVjyApLe9Yys-45" value="&lt;span style=&quot;color: rgba(0, 0, 0, 0); font-family: monospace; font-size: 0px; text-align: start; background-color: rgb(248, 249, 250);&quot;&gt;%3CmxGraphModel%3E%3Croot%3E%3CmxCell%20id%3D%220%22%2F%3E%3CmxCell%20id%3D%221%22%20parent%3D%220%22%2F%3E%3CmxCell%20id%3D%222%22%20value%3D%22Automatic%20transition%22%20style%3D%22edgeLabel%3Bhtml%3D1%3Balign%3Dcenter%3BverticalAlign%3Dmiddle%3Bresizable%3D0%3Bpoints%3D%5B%5D%3B%22%20vertex%3D%221%22%20connectable%3D%220%22%20parent%3D%221%22%3E%3CmxGeometry%20x%3D%22550.2413793103449%22%20y%3D%22630.0000000000002%22%20as%3D%22geometry%22%2F%3E%3C%2FmxCell%3E%3C%2Froot%3E%3C%2FmxGraphModel%3Auto&lt;/span&gt;" style="edgeLabel;html=1;align=center;verticalAlign=middle;resizable=0;points=[];" parent="QJUcf3hQXVjyApLe9Yys-24" vertex="1" connectable="0">
                    <mxGeometry x="-0.1672" y="-2" relative="1" as="geometry">
                        <mxPoint as="offset"/>
                    </mxGeometry>
                </mxCell>
                <mxCell id="QJUcf3hQXVjyApLe9Yys-46" value="Automatic Transition" style="edgeLabel;html=1;align=center;verticalAlign=middle;resizable=0;points=[];" parent="QJUcf3hQXVjyApLe9Yys-24" vertex="1" connectable="0">
                    <mxGeometry x="-0.219" relative="1" as="geometry">
                        <mxPoint x="-7" y="5" as="offset"/>
                    </mxGeometry>
                </mxCell>
                <mxCell id="QJUcf3hQXVjyApLe9Yys-7" value="JPass Dashboard&lt;br&gt;(saving state)" style="html=1;fillColor=#dae8fc;strokeColor=#6c8ebf;" parent="1" vertex="1">
                    <mxGeometry x="40" y="520" width="120" height="80" as="geometry"/>
                </mxCell>
                <mxCell id="6" style="edgeStyle=none;html=1;exitX=0.75;exitY=1;exitDx=0;exitDy=0;entryX=0.75;entryY=0;entryDx=0;entryDy=0;" edge="1" parent="1" source="QJUcf3hQXVjyApLe9Yys-13" target="QJUcf3hQXVjyApLe9Yys-3">
                    <mxGeometry relative="1" as="geometry"/>
                </mxCell>
                <mxCell id="7" value="Ok Button" style="edgeLabel;html=1;align=center;verticalAlign=middle;resizable=0;points=[];" vertex="1" connectable="0" parent="6">
                    <mxGeometry x="-0.1079" y="2" relative="1" as="geometry">
                        <mxPoint y="16" as="offset"/>
                    </mxGeometry>
                </mxCell>
                <mxCell id="QJUcf3hQXVjyApLe9Yys-13" value="Generate Password&lt;br&gt;(warning popup)" style="html=1;fillColor=#dae8fc;strokeColor=#6c8ebf;" parent="1" vertex="1">
                    <mxGeometry x="690" y="280" width="120" height="80" as="geometry"/>
                </mxCell>
                <mxCell id="8" style="edgeStyle=none;html=1;exitX=0.75;exitY=1;exitDx=0;exitDy=0;entryX=0.5;entryY=0;entryDx=0;entryDy=0;" edge="1" parent="1" source="QJUcf3hQXVjyApLe9Yys-14" target="QJUcf3hQXVjyApLe9Yys-2">
                    <mxGeometry relative="1" as="geometry">
                        <Array as="points">
                            <mxPoint x="450" y="410"/>
                            <mxPoint x="480" y="410"/>
                        </Array>
                    </mxGeometry>
                </mxCell>
                <mxCell id="9" value="Ok Button" style="edgeLabel;html=1;align=center;verticalAlign=middle;resizable=0;points=[];" vertex="1" connectable="0" parent="8">
                    <mxGeometry x="-0.297" relative="1" as="geometry">
                        <mxPoint x="10" y="-9" as="offset"/>
                    </mxGeometry>
                </mxCell>
                <mxCell id="QJUcf3hQXVjyApLe9Yys-14" value="Edit Entry&lt;br&gt;(warning popup)" style="html=1;fillColor=#dae8fc;strokeColor=#6c8ebf;" parent="1" vertex="1">
                    <mxGeometry x="360" y="280" width="120" height="80" as="geometry"/>
                </mxCell>
                <mxCell id="QJUcf3hQXVjyApLe9Yys-31" style="edgeStyle=orthogonalEdgeStyle;rounded=0;orthogonalLoop=1;jettySize=auto;html=1;exitX=0.5;exitY=1;exitDx=0;exitDy=0;entryX=0.25;entryY=1;entryDx=0;entryDy=0;" parent="1" source="QJUcf3hQXVjyApLe9Yys-3" edge="1" target="QJUcf3hQXVjyApLe9Yys-2">
                    <mxGeometry relative="1" as="geometry">
                        <mxPoint x="699" y="720" as="sourcePoint"/>
                        <mxPoint x="400" y="640" as="targetPoint"/>
                        <Array as="points">
                            <mxPoint x="750" y="730"/>
                            <mxPoint x="420" y="730"/>
                        </Array>
                    </mxGeometry>
                </mxCell>
                <mxCell id="QJUcf3hQXVjyApLe9Yys-43" value="Accept Button&lt;br&gt;[non-empty generated password]&lt;br&gt;&lt;font color=&quot;#cc0000&quot;&gt;/ Pu ts Password on Input Form&lt;/font&gt;" style="edgeLabel;html=1;align=center;verticalAlign=middle;resizable=0;points=[];" parent="QJUcf3hQXVjyApLe9Yys-31" vertex="1" connectable="0">
                    <mxGeometry x="-0.1606" relative="1" as="geometry">
                        <mxPoint x="-105" y="20" as="offset"/>
                    </mxGeometry>
                </mxCell>
                <mxCell id="QJUcf3hQXVjyApLe9Yys-36" value="Ok button&lt;br&gt;[invalid form]" style="edgeLabel;html=1;align=center;verticalAlign=middle;resizable=0;points=[];" parent="1" vertex="1" connectable="0">
                    <mxGeometry x="380.00172413793115" y="400" as="geometry"/>
                </mxCell>
                <mxCell id="QJUcf3hQXVjyApLe9Yys-47" style="edgeStyle=orthogonalEdgeStyle;rounded=0;orthogonalLoop=1;jettySize=auto;html=1;exitX=1;exitY=0.25;exitDx=0;exitDy=0;entryX=1;entryY=0.75;entryDx=0;entryDy=0;" parent="1" source="QJUcf3hQXVjyApLe9Yys-3" target="QJUcf3hQXVjyApLe9Yys-3" edge="1">
                    <mxGeometry relative="1" as="geometry">
                        <Array as="points">
                            <mxPoint x="840" y="500"/>
                            <mxPoint x="840" y="540"/>
                        </Array>
                    </mxGeometry>
                </mxCell>
                <mxCell id="QJUcf3hQXVjyApLe9Yys-48" value="Generate Button&lt;br&gt;&lt;font color=&quot;#cc0000&quot;&gt;/ Generates Random Password&lt;/font&gt;" style="edgeLabel;html=1;align=center;verticalAlign=middle;resizable=0;points=[];" parent="QJUcf3hQXVjyApLe9Yys-47" vertex="1" connectable="0">
                    <mxGeometry x="-0.1874" y="-1" relative="1" as="geometry">
                        <mxPoint x="61" y="9" as="offset"/>
                    </mxGeometry>
                </mxCell>
                <mxCell id="QJUcf3hQXVjyApLe9Yys-50" style="edgeStyle=orthogonalEdgeStyle;rounded=0;orthogonalLoop=1;jettySize=auto;html=1;exitX=0.5;exitY=1;exitDx=0;exitDy=0;entryX=0.75;entryY=1;entryDx=0;entryDy=0;" parent="1" source="QJUcf3hQXVjyApLe9Yys-2" target="QJUcf3hQXVjyApLe9Yys-2" edge="1">
                    <mxGeometry relative="1" as="geometry"/>
                </mxCell>
                <mxCell id="QJUcf3hQXVjyApLe9Yys-51" value="Copy Button&lt;br&gt;&lt;font color=&quot;#cc0000&quot;&gt;/ Copies Password to Clipboard&lt;/font&gt;" style="edgeLabel;html=1;align=center;verticalAlign=middle;resizable=0;points=[];" parent="QJUcf3hQXVjyApLe9Yys-50" vertex="1" connectable="0">
                    <mxGeometry x="-0.192" y="-1" relative="1" as="geometry">
                        <mxPoint x="29" y="19" as="offset"/>
                    </mxGeometry>
                </mxCell>
                <mxCell id="QJUcf3hQXVjyApLe9Yys-53" style="edgeStyle=orthogonalEdgeStyle;rounded=0;orthogonalLoop=1;jettySize=auto;html=1;exitX=0.75;exitY=0;exitDx=0;exitDy=0;entryX=1;entryY=0.25;entryDx=0;entryDy=0;" parent="1" source="QJUcf3hQXVjyApLe9Yys-2" target="QJUcf3hQXVjyApLe9Yys-2" edge="1">
                    <mxGeometry relative="1" as="geometry">
                        <Array as="points">
                            <mxPoint x="540" y="420"/>
                            <mxPoint x="620" y="420"/>
                            <mxPoint x="620" y="490"/>
                        </Array>
                    </mxGeometry>
                </mxCell>
                <mxCell id="QJUcf3hQXVjyApLe9Yys-54" value="Show Button&lt;br&gt;&lt;font color=&quot;#cc0000&quot;&gt;/ Reveals Password&lt;/font&gt;" style="edgeLabel;html=1;align=center;verticalAlign=middle;resizable=0;points=[];" parent="QJUcf3hQXVjyApLe9Yys-53" vertex="1" connectable="0">
                    <mxGeometry x="0.0008" y="1" relative="1" as="geometry">
                        <mxPoint x="-55" y="-9" as="offset"/>
                    </mxGeometry>
                </mxCell>
                <mxCell id="QJUcf3hQXVjyApLe9Yys-57" value="" style="ellipse;html=1;shape=startState;fillColor=#000000;strokeColor=#ff0000;fontColor=#CC0000;" parent="1" vertex="1">
                    <mxGeometry x="-50" y="385" width="30" height="30" as="geometry"/>
                </mxCell>
                <mxCell id="QJUcf3hQXVjyApLe9Yys-58" value="" style="edgeStyle=orthogonalEdgeStyle;html=1;verticalAlign=bottom;endArrow=open;endSize=8;strokeColor=#ff0000;rounded=0;fontColor=#CC0000;exitX=1;exitY=0.5;exitDx=0;exitDy=0;" parent="1" source="QJUcf3hQXVjyApLe9Yys-57" edge="1">
                    <mxGeometry relative="1" as="geometry">
                        <mxPoint x="40" y="400" as="targetPoint"/>
                        <mxPoint x="100" y="300" as="sourcePoint"/>
                    </mxGeometry>
                </mxCell>
                <mxCell id="4" style="edgeStyle=none;html=1;exitX=0.5;exitY=1;exitDx=0;exitDy=0;entryX=0.5;entryY=0;entryDx=0;entryDy=0;" edge="1" parent="1" source="QJUcf3hQXVjyApLe9Yys-60" target="QJUcf3hQXVjyApLe9Yys-1">
                    <mxGeometry relative="1" as="geometry">
                        <Array as="points">
                            <mxPoint x="100" y="320"/>
                            <mxPoint x="120" y="320"/>
                        </Array>
                    </mxGeometry>
                </mxCell>
                <mxCell id="5" value="Ok Button" style="edgeLabel;html=1;align=center;verticalAlign=middle;resizable=0;points=[];" vertex="1" connectable="0" parent="4">
                    <mxGeometry x="-0.2148" y="3" relative="1" as="geometry">
                        <mxPoint x="17" y="-5" as="offset"/>
                    </mxGeometry>
                </mxCell>
                <mxCell id="QJUcf3hQXVjyApLe9Yys-60" value="JPass Dashboard Edit&lt;br&gt;(warning popup)" style="html=1;fillColor=#dae8fc;strokeColor=#6c8ebf;" parent="1" vertex="1">
                    <mxGeometry x="40" y="200" width="120" height="80" as="geometry"/>
                </mxCell>
                <mxCell id="QJUcf3hQXVjyApLe9Yys-64" style="edgeStyle=orthogonalEdgeStyle;rounded=0;orthogonalLoop=1;jettySize=auto;html=1;exitX=0.75;exitY=0;exitDx=0;exitDy=0;entryX=1;entryY=0.25;entryDx=0;entryDy=0;fontColor=#CC0000;" parent="1" source="QJUcf3hQXVjyApLe9Yys-1" target="QJUcf3hQXVjyApLe9Yys-1" edge="1">
                    <mxGeometry relative="1" as="geometry">
                        <Array as="points">
                            <mxPoint x="160" y="330"/>
                            <mxPoint x="220" y="330"/>
                            <mxPoint x="220" y="380"/>
                        </Array>
                    </mxGeometry>
                </mxCell>
                <mxCell id="QJUcf3hQXVjyApLe9Yys-67" value="&lt;font color=&quot;#000000&quot;&gt;Select Entry&lt;/font&gt;&lt;br&gt;&lt;font color=&quot;#cc0000&quot;&gt;/ Flags entry as selected&lt;/font&gt;" style="edgeLabel;html=1;align=center;verticalAlign=middle;resizable=0;points=[];fontColor=#330000;" parent="QJUcf3hQXVjyApLe9Yys-64" vertex="1" connectable="0">
                    <mxGeometry x="0.115" y="-1" relative="1" as="geometry">
                        <mxPoint x="21" y="-4" as="offset"/>
                    </mxGeometry>
                </mxCell>
                <mxCell id="10" style="edgeStyle=none;html=1;exitX=0;exitY=0.5;exitDx=0;exitDy=0;entryX=-0.035;entryY=0.587;entryDx=0;entryDy=0;entryPerimeter=0;" edge="1" parent="1" source="QJUcf3hQXVjyApLe9Yys-7" target="QJUcf3hQXVjyApLe9Yys-7">
                    <mxGeometry relative="1" as="geometry"/>
                </mxCell>
            </root>
        </mxGraphModel>
    </diagram>
</mxfile>